<svg 
	id="Layer_1" 
	data-name="Layer 1" 
	xmlns="http://www.w3.org/2000/svg" 
	viewBox="0 0 678.51 128.43">
	<defs>
		<style>.bitrix-1{fill:#00629a;}.bitrix-2{fill:#3fc0f0;}</style>
	</defs>
	<title>Bitrix24</title>
	<g id="Canvas">
		<g id="b24_com" data-name="b24 com">
			<g id="Group">
				<g id="Group_2" data-name="Group 2">
					<g id="Vector">
						<path class="bitrix-1" d="M452.64,128.85h73.21v-16H477.3c6.66-26.62,47.38-32.5,47.38-62.25,0-16-11-27.8-33.67-27.8a79,79,0,0,0-35.24,8.61l5.09,14.88c7.83-3.52,16.44-7.05,27-7.05,8.62,0,16.45,3.53,16.45,13.32C504.71,74.43,456.94,76,452.64,128.85Z" transform="translate(-34.49 -2)"/>
					</g>
				</g>
				<g id="Group_3" data-name="Group 3">
					<g id="Vector_2" data-name="Vector 2">
						<path class="bitrix-1" d="M672.28,106.54A40.72,40.72,0,1,1,713,65.82,40.94,40.94,0,0,1,672.28,106.54Zm0-74a33.28,33.28,0,1,0,33.28,33.28A33.25,33.25,0,0,0,672.28,32.54Z" transform="translate(-34.49 -2)"/>
					</g>
				</g>
				<g id="Vector_3" data-name="Vector 3">
					<path class="bitrix-1" d="M695.38,65.82H675V45.46h-5.48V71.3h25.84Z" transform="translate(-34.49 -2)"/>
				</g>
				<g id="Group_4" data-name="Group 4">
					<g id="Group_5" data-name="Group 5">
						<g id="Vector_4" data-name="Vector 4">
							<path class="bitrix-2" d="M34.49,8.26H69.72c25.85,0,37.59,14.88,37.59,30.54,0,10.57-5.09,20-14.49,25.06v.39c14.1,3.53,22.71,14.88,22.71,29,0,18.79-14.09,35.62-42.28,35.62H34.49ZM67,58.77c12.14,0,18.8-6.65,18.8-16.05,0-9-5.88-16-18.8-16H56.8v32.1Zm3.53,52.07c14.48,0,22.71-5.48,22.71-17.61,0-10.18-7.83-16.45-20-16.45H56.8v34.06Z" transform="translate(-34.49 -2)"/>
						</g>
						<g id="Vector_5" data-name="Vector 5">
							<path class="bitrix-2" d="M132,15.31A13.2,13.2,0,0,1,145.29,2C152.73,2,159,7.48,159,15.31c0,7-5.87,12.92-13.7,12.92S132,22.75,132,15.31Zm2.35,27h21.92v86.52H134.33Z" transform="translate(-34.49 -2)"/>
						</g>
						<g id="Vector_6" data-name="Vector 6">
							<path class="bitrix-2" d="M185.62,107.71V59.55H170V42.33h15.66v-20l21.92-6.27V42.33h26.23l-5.48,17.22H207.54v42.68c0,8.22,2.74,11,8.62,11a24.51,24.51,0,0,0,13.31-4.3l6.65,14.87c-6.26,4.31-16.83,6.66-25.45,6.66C195,130.81,185.62,122.2,185.62,107.71Z" transform="translate(-34.49 -2)"/>
						</g>
						<g id="Vector_7" data-name="Vector 7">
							<path class="bitrix-2" d="M247.87,42.33h18.4l2.35,9.79c7.83-7.84,14.88-11.75,23.88-11.75a22.92,22.92,0,0,1,12.14,3.52l-7.83,18.4A18.71,18.71,0,0,0,287,59.55c-5.87,0-10.57,2.35-17.62,8.62v61.08H247.48V42.33Z" transform="translate(-34.49 -2)"/>
						</g>
						<g id="Vector_8" data-name="Vector 8">
							<path class="bitrix-2" d="M313.25,15.31a13.32,13.32,0,0,1,26.63,0c0,7-5.88,12.92-13.71,12.92S313.25,22.75,313.25,15.31Zm2.35,27h21.93v86.52H315.6Z" transform="translate(-34.49 -2)"/>
						</g>
						<g id="Vector_9" data-name="Vector 9">
							<path class="bitrix-2" d="M381.77,85.39,350.45,42.33h22.71l20.36,28.19,20.75-28.19H437L405.26,85.39l32.11,43.46H414.66l-20.75-29-21.15,29h-22.7Z" transform="translate(-34.49 -2)"/>
						</g>
					</g>
				</g>
				<g id="Vector_10" data-name="Vector 10">
					<path class="bitrix-1" d="M594,87.74v-65H580.27L528.2,90.48V103.4h47v25.85H594V103.4h15.66V87.74Zm-18.8-15.27V87.35H562.65c-3.91,0-11,.39-13.31.39l26.63-36C576,54.86,575.18,64.25,575.18,72.47Z" transform="translate(-34.49 -2)"/>
				</g>
			</g>
		</g>
	</g>
</svg>