<svg id="Layer_1" 
	data-name="Layer 1" 
	xmlns="http://www.w3.org/2000/svg" 
	viewBox="0 0 498.79 180.07">
	<defs>
		<style>.cls-1{fill:#0c2e44;}.cls-2{fill:#fb7377;}</style>
	</defs>
	<title>expar_logo</title>
	<g id="Group_1" data-name="Group 1">
		<path id="Path_3" data-name="Path 3" class="cls-1" d="M344.94,82.93a18.5,18.5,0,0,1,13.6,4.12,16.21,16.21,0,0,1,4.12,12,14.94,14.94,0,0,1-4.12,11.25,19.56,19.56,0,0,1-13.8,4.12H319.6v3.72a7.55,7.55,0,0,0,1.83,5.3,8.26,8.26,0,0,0,6.27,2.06H360v10.3H327.71a24.07,24.07,0,0,1-8.24-1.32,15.31,15.31,0,0,1-5.73-3.67,14.34,14.34,0,0,1-3.25-5.48,22.76,22.76,0,0,1-1-7v-18a22.61,22.61,0,0,1,1-6.88,14.44,14.44,0,0,1,3.25-5.57,15.64,15.64,0,0,1,5.73-3.67,24,24,0,0,1,8.24-1.27ZM319.72,106h24.71a8.4,8.4,0,0,0,6-1.69,6,6,0,0,0,1.78-4.57,6.53,6.53,0,0,0-1.82-4.82,7.73,7.73,0,0,0-5.68-1.81h-17a8.2,8.2,0,0,0-6.27,2.1,7.52,7.52,0,0,0-1.85,5.23Zm65.44-23.07L402.67,102l18.22-19.07h13.23l-24.69,26.29,25.1,26.54H421l-18.54-20.32-19,20.32H370.16l25.71-27.53-24-25.3Zm92.56,0a21.81,21.81,0,0,1,16.48,6.55,28.2,28.2,0,0,1,6.14,19.86,28.12,28.12,0,0,1-6.14,19.91,22,22,0,0,1-16.48,6.51H454.31v21.18H443.72V105.51a25.08,25.08,0,0,1,4.9-17.06,18.41,18.41,0,0,1,14.51-5.52Zm-23.41,42.53h22.34a12.38,12.38,0,0,0,10-3.8,19,19,0,0,0,3.13-12.36,19.3,19.3,0,0,0-3.13-12.36,12.36,12.36,0,0,0-10-3.83H466.22a11.94,11.94,0,0,0-9.19,3,14.61,14.61,0,0,0-2.72,9.89Zm92.76-42.53a24.62,24.62,0,0,1,8.25,1.27,15.3,15.3,0,0,1,5.76,3.67,14.62,14.62,0,0,1,3.26,5.56,23,23,0,0,1,1,6.89V125a23.81,23.81,0,0,1-.45,4.91,6.68,6.68,0,0,1-1.65,3.25,7.61,7.61,0,0,1-3.38,1.86,20,20,0,0,1-5.44.62H529.68a18.23,18.23,0,0,1-13.56-4.13A16.23,16.23,0,0,1,512,119.77a19.21,19.21,0,0,1,1-6.43,11.34,11.34,0,0,1,3-4.74,13.76,13.76,0,0,1,5.48-3,28.64,28.64,0,0,1,8.24-1h25.1v-4.16A7.55,7.55,0,0,0,553,95.21a7.9,7.9,0,0,0-6.23-2.1H515.09V82.93Zm5.11,42.53c1.94,0,2.89-.91,2.89-2.72v-9.89H530.34a8.25,8.25,0,0,0-5.93,1.64,6,6,0,0,0-1.69,4.54,6.43,6.43,0,0,0,1.69,4.65,7.84,7.84,0,0,0,5.73,1.78Zm64.25-42.53V93.14H597.8a6,6,0,0,0-6.8,5.08,6.19,6.19,0,0,0,0,1.72v35.85H580.43V98.34a17.49,17.49,0,0,1,3.26-11.75,14.2,14.2,0,0,1,11-3.66Z" transform="translate(-117.64 -27.07)"/>
	</g>
	<g id="Group_2" data-name="Group 2">
		<path id="Path_1" data-name="Path 1" class="cls-1" d="M277.69,28,224.43,44.41,195.75,53.2l28.19,26.19L290.63,58.9l3.57-15.52C297.21,31.32,289.51,24.41,277.69,28Z" transform="translate(-117.64 -27.07)"/><path id="Path_2" data-name="Path 2" class="cls-2" d="M134.85,106.8,123.21,95.94c-9.09-8.42-6.79-18.18,5-21.94l47.71-14.67,28.13,26.19Zm84.45-7.16-69.23,21.22L164,133.78l32.92,30.67,40.8,37.89c9,8.43,18.73,5.46,21.46-6.6l11.16-48.51Zm19.89-6.06L275,126.86l6.73-29.16L286,79.14Z" transform="translate(-117.64 -27.07)"/>
	</g>
</svg>