<svg 
	id="Component_1_1" 
	data-name="Component 1 – 1" 
	xmlns="http://www.w3.org/2000/svg" 
	width="98.945" 
	height="98.942" 
	viewBox="0 0 98.945 98.942">
	<g id="Group_463" data-name="Group 463">
		<path id="Path_579" data-name="Path 579" d="M222.087,436.031a19.782,19.782,0,0,0-19.762,19.76v3.926h9.813v-3.926a9.96,9.96,0,0,1,9.949-9.947h39.658V485.5a9.96,9.96,0,0,1-9.947,9.949H212.138V481.576h-9.813v23.689H251.8a19.784,19.784,0,0,0,19.76-19.762V436.031Z" transform="translate(-172.614 -436.031)" fill="#666"/>
		<path id="Path_580" data-name="Path 580" d="M249.785,493.54v3.927a9.96,9.96,0,0,1-9.949,9.947H200.175V467.755a9.96,9.96,0,0,1,9.949-9.949h39.661v13.876H259.6V447.993H210.124a19.785,19.785,0,0,0-19.762,19.762v49.471h49.474a19.784,19.784,0,0,0,19.762-19.76V493.54Z" transform="translate(-190.362 -418.284)" fill="#5a9e8e"/>
  </g>
</svg>
