<?xml version="1.0" encoding="utf-8"?>
<!-- Generator: Adobe Illustrator 23.0.3, SVG Export Plug-In . SVG Version: 6.00 Build 0)  -->
<svg version="1.1" id="Layer_2" xmlns="http://www.w3.org/2000/svg" xmlns:xlink="http://www.w3.org/1999/xlink" x="0px" y="0px"
	 viewBox="0 0 951.1 562.06" style="enable-background:new 0 0 951.1 562.06;" xml:space="preserve">
<style type="text/css">
	.st0{clip-path:url(#SVGID_8_);}
	.st1{clip-path:url(#SVGID_9_);}
	.st2{clip-path:url(#SVGID_10_);}
	.st3{clip-path:url(#SVGID_11_);}
	.st4{clip-path:url(#SVGID_12_);}
	.st5{clip-path:url(#SVGID_13_);}
	.st6{display:none;clip-path:url(#SVGID_14_);}
	.st7{display:inline;}
</style>
<g id="curv_x5F_mask">
	<defs>
		<path id="SVGID_1_" d="M153.75,326.39c-16.2,24.44-26.19,54.43-24.35,84.03c0.7,11.24,3.81,23.67,11.06,32.56
			c8.65,10.61,22.17,15.06,35.63,13.35c14.42-1.83,26.28-9.67,36.67-19.4c10.51-9.85,20.01-20.97,29.51-31.77
			c20.37-23.17,39.62-47.33,57.66-72.35c17.9-24.83,34.6-50.52,50.1-76.9c15.94-27.13,32.68-55.41,40.05-86.29
			c1.8-7.56,3.02-15.31,3.5-23.07c0.41-6.63,0.81-14.15-3.79-19.53c-9.8-11.47-30.3-8.89-41.31-0.82
			c-11.01,8.07-17.87,22.21-23.59,34.25c-6.12,12.9-10.7,26.52-13.69,40.48c-5.92,27.7-6,56.67,0.68,84.24
			c3.09,12.74,6.43,28.53,19.81,34.17c14.1,5.94,30.25-0.17,41.14-9.64c4.92-4.28,9.18-9.09,12.87-14.46
			c-7.45-0.92-14.9-1.83-22.34-2.75c-11.16,26.33-12.82,56.25-4.36,83.58c1.57,5.06,8.05,5.77,12.63,5.29
			c2.88-0.3,12.77-2.89,11.24-7.81c-8.18-26.4-6.92-54.54,3.87-80.01c3.85-9.09-18.68-8.07-22.34-2.75
			c-3.13,4.54-6.66,9.07-10.86,12.68c-1.64,1.41-3.52,2.86-5.42,3.9c-0.47,0.26-1.79,1.18-1.16,0.65c-2.19,1.82-0.88-0.6,0.07,0.21
			c1.07,0.91-2.11-1.86-2.43-2.21c-1.78-1.97-2.99-4.59-3.98-7.03c-2.23-5.5-3.71-11.41-5.08-17.17
			c-5.66-23.85-6.54-49.1-2.25-73.26c4.11-23.21,12.44-46.7,25.7-66.32c2.31-3.42,5.79-7.82,8.6-9.54
			c-0.86,0.53-1.09-0.27-1.05,0.04c-0.07-0.49,2.26,2.48,2.13,2.26c0.7,1.21,0.89,2.55,1.06,3.93c1.62,12.97-1.98,27.32-5.8,39.6
			c-8.14,26.19-22.17,50.41-35.93,73.98c-13.09,22.42-27.14,44.26-42.04,65.51c-15.28,21.79-31.47,42.95-48.51,63.4
			c-8.52,10.23-17.25,20.27-26.19,30.13c-7.87,8.68-15.62,18.13-24.97,25.28c-2.01,1.53-4.09,3.08-6.32,4.28
			c-0.82,0.44-1.71,0.86-2.57,1.22c0.16-0.06-3.62,1.19-2.05,0.81c-2.39,0.57-6.09-0.58-9.23-3.09
			c-8.34-6.67-11.5-18.59-12.61-28.73c-3.01-27.64,6.3-57.57,21.5-80.48C181.54,321.05,158.34,319.48,153.75,326.39L153.75,326.39z"
			/>
	</defs>
	<defs>
		<path id="SVGID_2_" d="M448.05,292.07c-13.16-0.17-26.6,3.47-36.8,12.1c-8.58,7.26-15.54,17.8-14.54,29.5
			c1.17,13.62,14.09,19.79,26.63,18.46c15.76-1.67,24.35-12.62,31.06-25.78c-7.8-0.45-15.61-0.89-23.41-1.34
			c-3.22,13.45,5.53,26.34,18.87,29.49c14.51,3.43,31.6-2.52,38.08-16.48c2.36-5.09-5.84-7.64-9.26-7.84
			c-5.19-0.31-11.79,1.4-14.16,6.5c-0.93,2-2.3,3.5-4.21,4.4c1.44-0.68-0.28-0.03-0.27-0.02c1.78,1.11-2.07-2.37-0.63-0.7
			c-3.62-4.19-6.45-8.04-5.01-14.01c1.28-5.35-5-7.59-9.26-7.84c-5.36-0.32-11.58,1.45-14.16,6.5c-1.72,3.38-3.47,6.76-5.9,9.7
			c-0.98,1.19-1.97,1.92-3.05,2.97c-1.35,1.32-1.4,0.7,0.9,0.28c1.65-0.3,1.04,1.31-0.05-0.39c-0.62-0.97-1.34-1.9-1.73-3
			c-0.86-2.38-0.83-5.32-0.44-7.78c0.93-5.79,4.52-11.18,9.02-14.83c2.12-1.73,4.48-3.29,6.96-4.26c1.21-0.47,2.78-0.93,4.15-1.17
			c-1.64,0.28,3.95-0.09,2.29-0.11c4.68,0.06,12.51-1.13,14.16-6.5C458.9,294.71,452,292.13,448.05,292.07L448.05,292.07z"/>
	</defs>
	<defs>
		<path id="SVGID_3_" d="M486.03,288.4c-1.81,17.59-3.61,35.18-5.42,52.76c-1.16,11.29,17.51,10.38,22.44,3.65
			c7.09-9.68,9.53-21.25,13.91-32.19c1.62-4.05,3.82-7.99,6.81-11.2c1.1-1.19,2.5-2.41,3.76-3.15c1.46-0.87,1.3-0.51,2.84-0.59
			c4.46-0.23,11.69-3.55,11.12-8.98c-0.61-5.78-8.39-6.68-12.75-6.46c-13.27,0.67-24.74,9.04-31.19,20.38
			c-6.61,11.63-7.98,25.72-15.93,36.58c7.48,1.22,14.96,2.43,22.44,3.65c1.81-17.59,3.61-35.18,5.42-52.76
			c0.57-5.57-4.24-8.24-9.34-8.62C496.16,281.16,486.59,282.93,486.03,288.4L486.03,288.4z"/>
	</defs>
	<defs>
		<path id="SVGID_4_" d="M511.33,330.23c15.91,2.87,32.84,0.34,47.32-6.79c9.85-4.85,25.55-16.77,17.58-29.26
			c-1.97-3.08-8.95-2.79-11.9-2.47c-3.92,0.41-8.73,1.51-11.12,4.9c-8.91,12.66-19.09,28.3-14.25,44.56
			c4.61,15.5,20.57,21,34.82,24.34c5.43,1.27,11.92,1.05,16.88-1.78c3.77-2.15,4.07-5.97-0.75-7.11
			c-12.04-2.82-25.31-6.97-27.77-20.89c-2.59-14.67,6.36-27.5,14.37-38.87c-7.67,0.81-15.34,1.62-23.01,2.43
			c4.76,7.46-5.44,15.13-11.07,18.12c-6.54,3.47-12.77,4.18-19.96,2.88c-4.74-0.86-12.57-0.13-16.14,3.53
			C502.56,327.67,508.13,329.66,511.33,330.23L511.33,330.23z"/>
	</defs>
	<defs>
		<path id="SVGID_5_" d="M631.24,200.57c-12.28,17.92-20.86,38.08-25.63,59.27c-2.3,10.24-3.83,20.67-4.48,31.15
			c-0.64,10.15-0.97,20.81,1.24,30.8c2.05,9.26,6.6,17.89,14.77,23.1c8.98,5.72,20.49,6.91,30.7,4.29
			c10.09-2.58,17.1-9.35,21.31-18.69c4.64-10.28,8.08-21.26,11.72-31.93c8.66-25.4,16.1-51.2,22.38-77.29
			c2.08-8.63-21.59-7.77-23.33-0.55c-4.84,20.12-10.36,40.07-16.62,59.79c-3.13,9.86-6.43,19.67-9.91,29.41
			c-2.96,8.28-5.4,17.81-10.29,25.22c-0.99,1.5-2.58,2.54-3.54,3.97c-0.02,0.04-0.7,0.4-0.72,0.37c-0.01-0.02,2.29-0.43,2.32-0.47
			c0.45-0.52-0.26-0.09-1.63-0.68c-1.66-0.72-3.28-1.75-4.66-2.92c-6.26-5.25-8.58-13.88-9.56-21.65
			c-2.28-18.05-0.1-37.45,4.04-55.08c4.84-20.56,13.29-40.12,25.24-57.55c2.95-4.3-6.95-5.97-9.06-6.02
			C640.46,194.96,634.27,196.16,631.24,200.57L631.24,200.57z"/>
	</defs>
	<defs>
		<path id="SVGID_6_" d="M697.87,163.99c9.67,34.28,19.33,68.56,29,102.83c4.83,17.14,9.67,34.28,14.5,51.42
			c4.2,14.89,7.63,30.84,16.99,43.5c3.21,4.34,10.47,4.2,15.16,2.97c3.01-0.79,10.74-4.45,7.49-8.85
			c-9.46-12.79-12.61-28.92-16.85-43.95c-4.65-16.5-9.31-33.01-13.96-49.51c-9.49-33.64-18.97-67.29-28.46-100.93
			c-1.43-5.06-8.19-5.69-12.62-5.22C706.17,156.56,696.48,159.06,697.87,163.99L697.87,163.99z"/>
	</defs>
	<defs>
		<path id="SVGID_7_" d="M821.84,284.81c1.14-5.63,2.29-11.27,3.43-16.9c1.44-7.08-11.4-6.56-15.41-5.38
			c-20.15,5.91-36.52,19.42-53.42,31.35c-18.23,12.86-36.46,25.71-54.69,38.57c-36.46,25.71-72.91,51.43-109.37,77.14
			c-20.68,14.58-41.35,29.17-62.03,43.75c-3.79,2.67-3.81,6.27,0.84,7.97c4.81,1.75,12.57,1.25,16.88-1.78
			c71.28-50.27,142.57-100.55,213.85-150.82c9.79-6.91,19.59-13.82,29.38-20.72c8.04-5.67,16.47-12.44,26.06-15.25
			c-5.14-1.79-10.27-3.59-15.41-5.38c-1.14,5.63-2.29,11.27-3.43,16.9c-0.99,4.89,5.4,5.95,9.07,6.05
			C810.88,290.39,820.89,289.44,821.84,284.81L821.84,284.81z"/>
	</defs>
	<use xlink:href="#SVGID_1_"  style="overflow:visible;fill:#FFFFFF;"/>
	<use xlink:href="#SVGID_2_"  style="overflow:visible;fill:#FFFFFF;"/>
	<use xlink:href="#SVGID_3_"  style="overflow:visible;fill:#FFFFFF;"/>
	<use xlink:href="#SVGID_4_"  style="overflow:visible;fill:#FFFFFF;"/>
	<use xlink:href="#SVGID_5_"  style="overflow:visible;fill:#FFFFFF;"/>
	<use xlink:href="#SVGID_6_"  style="overflow:visible;fill:#FFFFFF;"/>
	<use xlink:href="#SVGID_7_"  style="overflow:visible;fill:#FFFFFF;"/>
	<clipPath id="SVGID_8_">
		<use xlink:href="#SVGID_1_"  style="overflow:visible;"/>
	</clipPath>
	<clipPath id="SVGID_9_" class="st0">
		<use xlink:href="#SVGID_2_"  style="overflow:visible;"/>
	</clipPath>
	<clipPath id="SVGID_10_" class="st1">
		<use xlink:href="#SVGID_3_"  style="overflow:visible;"/>
	</clipPath>
	<clipPath id="SVGID_11_" class="st2">
		<use xlink:href="#SVGID_4_"  style="overflow:visible;"/>
	</clipPath>
	<clipPath id="SVGID_12_" class="st3">
		<use xlink:href="#SVGID_5_"  style="overflow:visible;"/>
	</clipPath>
	<clipPath id="SVGID_13_" class="st4">
		<use xlink:href="#SVGID_6_"  style="overflow:visible;"/>
	</clipPath>
	<clipPath id="SVGID_14_" class="st5">
		<use xlink:href="#SVGID_7_"  style="overflow:visible;"/>
	</clipPath>
	<g id="m-1" class="st6">
		<g class="st7">
			<path d="M153.66,328.56c-14.06,22.02-26.7,47.33-27.35,73.96c-0.33,13.23,2.56,25.73,9.57,37.03
				c3.68,5.93,7.94,11.03,14.25,14.25c6.55,3.34,14.19,3.97,21.41,3.39c15.81-1.27,29.44-8.92,40.29-20.14
				c5.62-5.81,10.77-11.99,15.83-18.29c5.16-6.43,10.51-11.83,16.56-17.43c11.91-11,21.77-24.84,31.92-37.47
				c9.94-12.37,19.64-24.93,28.8-37.89c10.1-14.28,19.53-29.04,27.86-44.42c4.55-8.39,8.7-16.78,13.83-24.85
				c5.45-8.58,10.9-17.16,16.35-25.73c2.84-4.47-2.47-6.26-6.15-6.31c-4.77-0.06-12.52,1.77-15.34,6.2
				c-8.61,13.56-18.13,26.88-25.3,41.25c-6.51,13.05-13.96,25.65-21.93,37.86c-15.76,24.17-33.71,46.8-52.05,69.04
				c-4.52,5.48-8.84,11.32-13.72,16.47c-5.6,5.92-12.24,10.61-17.39,16.99c-7.98,9.88-15.9,22.37-26.63,29.45
				c-3.72,2.46-5.68,3.26-9.39,2.98c-5.54-0.41-9.9-3.8-13.25-7.99c-7.3-9.14-11.26-20.35-12.18-31.96
				c-2.14-27.07,11.32-54.12,25.47-76.29c2.85-4.47-2.48-6.26-6.15-6.31C164.22,322.3,156.49,324.13,153.66,328.56L153.66,328.56z"
				/>
		</g>
	</g>
	<g id="m-2" class="st6">
		<g class="st7">
			<path d="M363.41,232.55c11.56-21.13,22.11-42.9,27.32-66.55c2.29-10.37,4.7-23.1,2.17-33.64c-2.66-11.08-14.13-15.96-24.67-15.33
				c-23.95,1.43-36.6,27.97-45.02,47.13c-8.68,19.77-14.01,41.23-15.69,62.75c-1.94,24.83,0.93,50.13,8.64,73.81
				c3.67,11.28,26.82,4.97,23.18-6.21c-11.39-34.99-11.85-73.44-0.74-108.6c2.81-8.89,6.28-17.57,10.42-25.92
				c3.71-7.5,7.83-16.15,13.79-22.16c0.97-0.97,1.97-1.77,3.08-2.44c0.26-0.16,1.52-0.22,0.36-0.25c1.33,0.03,2.7,0.53,3.46,3.43
				c1,3.81,0.3,8.39-0.02,12.27c-0.44,5.29-1.25,10.54-2.35,15.73c-4.75,22.21-15.44,42.92-26.27,62.7c-2.84,5.19,2.6,9.88,7.3,10.6
				C354.4,240.79,360.51,237.84,363.41,232.55L363.41,232.55z"/>
		</g>
	</g>
	<g id="m-3" class="st6">
		<g class="st7">
			<path d="M316.16,300.72c2.42,7.18,6.1,15.11,13.43,18.37c7.94,3.54,17.8,1.56,25.41-1.87c6.62-2.98,12.47-7.41,17.76-12.34
				c2.14-1.99,4.18-4.07,6.26-6.13c0.71-0.7,1.41-1.42,2.15-2.1c5.06-4.63,0.08,2.84-10.83,2.59c-1.56-0.29-3.12-0.57-4.69-0.86
				c-1.59-0.77-2.23-2.72-2.09-2.79c-0.07,0.04-0.61,1.64-0.52,1.41c-0.94,2.16-2.88,4.92-4.3,7.15c7.44-0.48,14.88-0.96,22.32-1.44
				c0.7-3.82,2.59-6.48,4.75-9.62c-7.44,0.48-14.88,0.96-22.32,1.44c-11.08,26.31-12.58,56.1-4.14,83.37
				c2.39,7.72,25.51,1.29,23.18-6.21c-8.21-26.51-6.69-54.64,4.09-80.22c1.82-4.33-6.4-4.83-8.45-4.69
				c-4.67,0.3-11.04,2.02-13.87,6.13c-2.75,3.99-5.5,8.04-6.39,12.88c-1.7,9.31,19.59,2.83,22.32-1.44
				c2.28-3.55,10.72-13.68,3.93-16.88c-8.66-4.07-18.37,2.65-24.25,8.51c-2.38,2.37-4.75,4.75-7.25,6.99
				c-1.51,1.35-3.05,2.66-4.67,3.87c0.19-0.14-2.96,1.89-2.42,1.61c1.21-0.64-1.15,0.58-1.43,0.6c0.46-0.02,3.2-0.59,3.66-0.77
				c1.09-0.44,0.75,0.85,0.29-0.09c-0.15-0.31-1.73-1.13-2.09-1.45c-3.52-3.09-5.23-7.91-6.68-12.21
				C336.75,286.78,313.69,293.37,316.16,300.72L316.16,300.72z"/>
		</g>
	</g>
	<g id="a" class="st6">
		<g class="st7">
			<path d="M453.16,294.67c-21.97-0.29-57.59,12.96-56.15,40.24c0.73,13.9,14.12,16.11,25.47,13.86c7.43-1.47,15.13-4.36,20.85-9.47
				c4.81-4.3,7.9-10.04,10.79-15.71c-7.61,1.4-15.22,2.8-22.83,4.2c-2.84,11.86,4.82,23.25,17.03,24.79
				c13.42,1.7,33.2-4.09,39.34-17.31c1.71-3.68-7.97-2.2-9.21-1.98c-3.62,0.66-11.79,2.22-13.63,6.17
				c-1.15,2.47-3.02,3.71-4.46,5.78c6.67-0.99,8.58-1.52,5.74-1.59c-0.65-0.08-1.27-0.24-1.88-0.47c-1.45-0.47-2.79-1.33-3.99-2.26
				c-5.04-3.92-7.6-11.11-6.11-17.33c1.21-5.05-20.5-0.38-22.83,4.2c-1.63,3.21-3.27,6.45-5.34,9.4c-1.19,1.71-2.93,2.96-4.12,4.58
				c-2.14,2.93,8.11,0.61,5.48-1.41c-2.54-1.96-4.52-2.6-5.86-5.78c-1.1-2.62-1.42-5.58-1.24-8.39c0.41-6.35,3.87-12.5,8.33-16.91
				c2.05-2.02,4.29-3.75,6.83-5.11c1.86-0.99,0.08-0.37,2.67-0.34c5.49,0.07,11.72-1.47,16.39-4.39
				C458,297.21,457.76,294.73,453.16,294.67L453.16,294.67z"/>
		</g>
	</g>
	<g id="r" class="st6">
		<g class="st7">
			<path d="M486.27,291.08c-1.81,17.59-3.61,35.18-5.42,52.76c-0.8,7.82,19.58,1.08,22.08-2.33c6.37-8.68,9.05-18.61,12.66-28.58
				c1.58-4.37,3.42-8.71,6.18-12.48c1.29-1.76,2.85-3.19,4.28-4.81c1.71-1.94,1.01-0.49-1.34-0.37c4.86-0.25,12.25-1.71,15.44-5.81
				c3.18-4.09-2.78-4.99-5.75-4.83c-15.27,0.8-28.71,8.11-36.74,21.15c-7.05,11.44-7.91,25.79-15.92,36.7
				c7.36-0.78,14.72-1.55,22.08-2.33c1.81-17.59,3.61-35.18,5.42-52.76c0.46-4.47-6.74-3.62-9.53-3.18
				C496.82,284.68,486.7,286.88,486.27,291.08L486.27,291.08z"/>
		</g>
	</g>
	<g id="e" class="st6">
		<g class="st7">
			<path d="M507.34,329.65c16.22,2.93,33.6-0.15,48.42-7.16c8.97-4.24,28.71-16.3,20.69-28.85c-1.86-2.91-8.42-1.21-10.94-0.63
				c-3.99,0.91-9.56,2.27-12.07,5.83c-8.78,12.47-18.6,27.42-14.33,43.46c4,15.05,19.7,20,33.18,23.17
				c5.09,1.19,11.6-0.89,16.18-3.04c1.96-0.92,7.97-4.56,2.92-5.74c-12.7-2.98-26.47-7.66-29.45-22.06
				c-3.11-15,6.15-28.35,14.33-39.98c-7.67,1.73-15.34,3.47-23.01,5.2c4.81,7.54-2.5,15.22-8.81,18.88
				c-5.67,3.29-11.45,3.33-18.02,2.15c-5.26-0.95-11.43,0.82-16.18,3.04C508.49,324.73,502.14,328.71,507.34,329.65L507.34,329.65z"
				/>
		</g>
	</g>
	<g id="u" class="st6">
		<g class="st7">
			<path d="M632.14,200.69c-12.06,17.58-20.78,37.4-25.78,58.11c-4.76,19.71-7.67,42.33-4.12,62.49c1.68,9.5,6,18.62,14.13,24.17
				c8.59,5.85,19.28,6.99,29.23,4.27c11.28-3.08,18.79-10.59,23.46-21.02c4.68-10.44,8.18-21.55,11.86-32.36
				c8.6-25.26,15.99-50.92,22.23-76.86c1.99-8.25-21.29-4.75-23.16,3c-4.83,20.07-10.34,39.98-16.58,59.66
				c-3.07,9.69-6.31,19.32-9.73,28.9c-2.98,8.35-5.38,18.06-10.51,25.41c-0.13,0.19-2.34,2.93-2.41,2.68
				c-0.23-0.8,2.5-0.48,2.53-0.82c-0.08,0.89-8.21-3.9-8.76-4.39c-6.24-5.56-8.61-13.98-9.6-22.02c-2.22-17.9,0.12-36.97,4.17-54.44
				c4.69-20.22,12.81-39.33,24.56-56.46c3.06-4.46-2.64-6.5-6.22-6.58C642.42,194.31,635.19,196.24,632.14,200.69L632.14,200.69z"/>
		</g>
	</g>
	<g id="x-1" class="st6">
		<g class="st7">
			<path d="M698.21,165.84c9.58,33.96,19.15,67.92,28.73,101.88c4.74,16.82,9.49,33.64,14.23,50.46
				c4.22,14.96,7.51,30.99,16.92,43.73c4.3,5.82,25.24-3.43,23.18-6.21c-9.41-12.73-12.7-28.76-16.92-43.73
				c-4.74-16.82-9.49-33.64-14.23-50.47c-9.58-33.96-19.15-67.92-28.73-101.88C719.83,154.07,696.66,160.33,698.21,165.84
				L698.21,165.84z"/>
		</g>
	</g>
	<g id="x-2" class="st6">
		<g class="st7">
			<path d="M821.84,283.36c1.14-5.63,2.29-11.27,3.43-16.9c1.4-6.9-9.82-6.8-13.51-5.72c-20.24,5.93-36.94,19.88-53.91,31.85
				c-18.23,12.86-36.46,25.71-54.69,38.57c-36.46,25.71-72.91,51.43-109.37,77.14c-20.68,14.58-41.35,29.17-62.03,43.75
				c-3.55,2.5-6.4,7.61-1.63,10.53c4.7,2.88,12.29,1.21,16.52-1.78c71.28-50.27,142.57-100.55,213.85-150.82
				c9.79-6.91,19.59-13.82,29.38-20.72c7.97-5.62,16.08-11.96,25.57-14.74c-4.5-1.91-9.01-3.81-13.51-5.72
				c-1.14,5.63-2.29,11.27-3.43,16.9C796.44,295.85,819.98,292.49,821.84,283.36L821.84,283.36z"/>
		</g>
	</g>
</g>
<g>
</g>
<g>
</g>
<g>
</g>
<g>
</g>
<g>
</g>
<g>
</g>
</svg>
