<svg id="Layer_1" data-name="Layer 1" xmlns="http://www.w3.org/2000/svg" viewBox="0 0 190.64 118.39"><defs><style>.osa-1{fill:#fce205;}.osa-2{fill:#001f3f;}</style></defs><title>osa_logo</title><path class="osa-1" d="M308.73,39.38c0,23-16.41,35.16-36.43,35.16C251.59,74.54,237,60.87,237,40.68c0-21.2,15.48-35.07,36.43-35.07C294.89,5.6,308.73,19.56,308.73,39.38Zm-60.86,1.09c0,14.26,9.07,27,25,27S298,54.93,298,39.77c0-13.27-8.15-27.14-25-27.14s-25.15,13.18-25.15,27.84Z" transform="translate(-237.04 -5.61)"/><path class="osa-1" d="M320.14,64.54A30.27,30.27,0,0,0,333.64,68c7.45,0,10.94-3.17,10.94-7.14,0-4.16-2.9-6.45-10.48-8.81C324,49,319.19,44.23,319.19,38.49c0-7.73,7.33-14.07,19.43-14.07a32.15,32.15,0,0,1,13.86,3l-2.56,6.34A24.76,24.76,0,0,0,338.42,31c-6,0-9.43,3-9.43,6.53,0,4,3.38,5.75,10.71,8.13,9.78,3.17,14.79,7.33,14.79,14.46,0,8.42-7.69,14.36-21.07,14.36a36.72,36.72,0,0,1-15.83-3.26Z" transform="translate(-237.04 -5.61)"/><path class="osa-1" d="M380.66,52.45l-8.14,21H362L388.69,6.69H400.9l26.77,66.77H416.86l-8.38-21Zm25.73-6.73L398.71,26.5c-1.75-4.36-2.91-8.32-4.08-12.18h-.23c-1.16,4-2.45,8-4,12.09l-7.68,19.31Z" transform="translate(-237.04 -5.61)"/><path class="osa-2" d="M238,85.09a30.32,30.32,0,0,1,4.36-.29c2.82,0,4.74.5,6.13,1.48a6,6,0,0,1,2.53,5.3,6.78,6.78,0,0,1-2.51,5.67C247,98.41,244.63,99,241.67,99a34.37,34.37,0,0,1-3.66-.18ZM241,97a10.85,10.85,0,0,0,1.4.06c3.36,0,5.53-1.66,5.53-5.42,0-3.11-1.81-4.9-5.24-4.9a9.66,9.66,0,0,0-1.7.12Z" transform="translate(-237.04 -5.61)"/><path class="osa-2" d="M256.62,86c0,.76-.65,1.34-1.68,1.34A1.44,1.44,0,0,1,253.33,86a1.67,1.67,0,0,1,3.29,0ZM253.5,98.88V88.78h3v10.1Z" transform="translate(-237.04 -5.61)"/><path class="osa-2" d="M269.86,88.78c-.05.72-.1,1.61-.1,3v5.73c0,2.2-.5,3.59-1.67,4.48a7.18,7.18,0,0,1-4.41,1.21,9.72,9.72,0,0,1-3.84-.7l.63-1.88a7.73,7.73,0,0,0,3.18.68c1.89,0,3.18-.87,3.18-3v-.84h-.05a3.84,3.84,0,0,1-3.17,1.36,4.65,4.65,0,0,1-4.74-4.93,5,5,0,0,1,5.06-5.32,3.6,3.6,0,0,1,3.17,1.47h0l.12-1.26ZM266.8,92.7a2.44,2.44,0,0,0-.1-.71,2.2,2.2,0,0,0-2.19-1.49c-1.58,0-2.66,1.3-2.66,3.31,0,1.86,1,3.15,2.65,3.15a2.21,2.21,0,0,0,2.17-1.39,2.72,2.72,0,0,0,.14-.89Z" transform="translate(-237.04 -5.61)"/><path class="osa-2" d="M275.87,86c0,.76-.65,1.34-1.68,1.34A1.44,1.44,0,0,1,272.58,86a1.67,1.67,0,0,1,3.29,0Zm-3.12,12.87V88.78h3v10.1Z" transform="translate(-237.04 -5.61)"/><path class="osa-2" d="M282.23,85.94v2.82H285v1.82h-2.77v4.69c0,1.24.45,1.77,1.48,1.77a5,5,0,0,0,1.09-.1l.06,1.88a8.26,8.26,0,0,1-2.1.24,3.9,3.9,0,0,1-2.51-.77,3.49,3.49,0,0,1-.94-2.83V90.59h-1.66V88.78h1.66V86.54Z" transform="translate(-237.04 -5.61)"/><path class="osa-2" d="M293.47,98.88l-.19-1.09h-.08a4.32,4.32,0,0,1-3.29,1.3c-2.26,0-3.63-1.39-3.63-3,0-2.56,2.72-3.79,6.7-3.79v-.2c0-.78-.37-1.77-2.28-1.77a6.73,6.73,0,0,0-3,.7l-.58-1.61a9.5,9.5,0,0,1,4.13-.85c3.68,0,4.71,2,4.71,4.16v3.76a12,12,0,0,0,.18,2.39Zm-.4-5c-1.84,0-3.87.33-3.87,1.93a1.46,1.46,0,0,0,1.63,1.48A2.2,2.2,0,0,0,293,96a2,2,0,0,0,.08-.54Z" transform="translate(-237.04 -5.61)"/><path class="osa-2" d="M299,84.26h3V98.88h-3Z" transform="translate(-237.04 -5.61)"/><path class="osa-2" d="M305.09,91.74c0-1.16,0-2.08-.1-3h2.59l.15,1.42h.06a4.26,4.26,0,0,1,3.59-1.61c2.1,0,4,1.18,4,4.12V98.9h-3V93c0-1.32-.53-2.39-2.06-2.39A2.24,2.24,0,0,0,308.19,92a2.38,2.38,0,0,0-.13.84v6h-3Z" transform="translate(-237.04 -5.61)"/><path class="osa-2" d="M324.76,98.88l-.2-1.09h-.06a4.35,4.35,0,0,1-3.3,1.3c-2.26,0-3.63-1.39-3.63-3,0-2.56,2.72-3.79,6.7-3.79v-.2c0-.78-.37-1.77-2.29-1.77a6.72,6.72,0,0,0-3,.7l-.58-1.61a9.55,9.55,0,0,1,4.11-.84c3.69,0,4.72,2,4.72,4.16v3.75a12.86,12.86,0,0,0,.17,2.4Zm-.4-5c-1.84,0-3.87.33-3.87,1.93a1.45,1.45,0,0,0,1.62,1.48A2.19,2.19,0,0,0,324.26,96a1.45,1.45,0,0,0,.08-.54Z" transform="translate(-237.04 -5.61)"/><path class="osa-2" d="M335.1,91.91c0-1.23,0-2.24-.1-3.13h2.57l.12,1.8h.09a3.37,3.37,0,0,1,3.08-2,3.07,3.07,0,0,1,.68.05V91a3.55,3.55,0,0,0-.8-.06,2.51,2.51,0,0,0-2.59,1.87,3.84,3.84,0,0,0-.09.83v5.27h-3Z" transform="translate(-237.04 -5.61)"/><path class="osa-2" d="M345.34,94.5c.07,2,1.65,2.71,3.46,2.71a9.69,9.69,0,0,0,3-.44l.43,1.71a12,12,0,0,1-3.9.59c-3.72,0-5.86-2-5.86-5.09A5.23,5.23,0,0,1,348,88.57a4.5,4.5,0,0,1,4.83,4.84,5.06,5.06,0,0,1-.09,1.1Zm4.76-1.72a2.22,2.22,0,0,0-2.25-2.5,2.55,2.55,0,0,0-2.51,2.5Z" transform="translate(-237.04 -5.61)"/><path class="osa-2" d="M355,96.61a7.13,7.13,0,0,0,2.83.68c1.23,0,1.83-.46,1.83-1.14s-.45-1-1.85-1.53c-2.21-.74-3.11-1.78-3.1-2.93,0-1.77,1.71-3.12,4.37-3.12a7.58,7.58,0,0,1,3,.57l-.6,1.75a5.44,5.44,0,0,0-2.31-.54c-1,0-1.61.47-1.61,1.06s.5.93,1.93,1.44c2.05.7,3,1.65,3,3.07,0,1.91-1.73,3.15-4.68,3.15a8.08,8.08,0,0,1-3.39-.67Zm2.51-9.13-2.34-3h2.06l1.28,1.83h0l1.28-1.83h2.05l-2.33,3Z" transform="translate(-237.04 -5.61)"/><path class="osa-2" d="M368,86c0,.76-.65,1.34-1.68,1.34A1.44,1.44,0,0,1,364.69,86,1.67,1.67,0,0,1,368,86Zm-3.12,12.87V88.78h3v10.1Z" transform="translate(-237.04 -5.61)"/><path class="osa-2" d="M374.34,85.94v2.82h2.78v1.82h-2.77v4.69c0,1.24.46,1.77,1.48,1.77a5,5,0,0,0,1.09-.1l.06,1.88a8.21,8.21,0,0,1-2.1.24,3.85,3.85,0,0,1-2.5-.77,3.49,3.49,0,0,1-.95-2.83V90.59h-1.66V88.78h1.66V86.54Z" transform="translate(-237.04 -5.61)"/><path class="osa-2" d="M381.22,94.5c.07,2,1.65,2.71,3.46,2.71a9.65,9.65,0,0,0,3-.44l.44,1.71a12,12,0,0,1-3.91.59c-3.72,0-5.86-2-5.86-5.09a5.23,5.23,0,0,1,5.55-5.41,4.5,4.5,0,0,1,4.84,4.84,5.06,5.06,0,0,1-.1,1.1ZM386,92.78a2.23,2.23,0,0,0-2.26-2.5,2.54,2.54,0,0,0-2.5,2.5Z" transform="translate(-237.04 -5.61)"/><path class="osa-2" d="M392.89,88.78l1.75,5.1c.29.86.53,1.71.73,2.57h.08c.2-.87.44-1.68.73-2.57l1.71-5.1H401l-4.24,10.1h-2.86l-4.16-10.1Z" transform="translate(-237.04 -5.61)"/><path class="osa-2" d="M406.49,97.44l4.24-5c.54-.59,1-1.13,1.57-1.65v0H407v-2h8.87v1.54l-4.13,4.86c-.54.59-1.07,1.18-1.59,1.69v0h5.84v2h-9.45Z" transform="translate(-237.04 -5.61)"/><path class="osa-2" d="M424.33,98.88l-.2-1.09h-.07a4.33,4.33,0,0,1-3.3,1.3c-2.26,0-3.62-1.39-3.62-3,0-2.56,2.72-3.79,6.7-3.79v-.2c0-.78-.37-1.77-2.29-1.77a6.72,6.72,0,0,0-3,.7L418,89.42a9.52,9.52,0,0,1,4.11-.84c3.69,0,4.71,2,4.71,4.16v3.75a13.78,13.78,0,0,0,.18,2.4Zm-.41-5c-1.83,0-3.86.33-3.86,1.93a1.45,1.45,0,0,0,1.61,1.48A2.2,2.2,0,0,0,423.83,96a2,2,0,0,0,.08-.54Z" transform="translate(-237.04 -5.61)"/><path class="osa-2" d="M257.92,118.66c0,3.82-3,5.34-5.71,5.34-3.19,0-5.59-1.92-5.59-5.2s2.5-5.33,5.77-5.33S257.92,115.51,257.92,118.66Zm-8.27.08c0,1.87.93,3.44,2.66,3.44s2.59-1.59,2.59-3.46c0-1.56-.68-3.44-2.59-3.44s-2.66,1.84-2.66,3.46Z" transform="translate(-237.04 -5.61)"/><path class="osa-2" d="M260.15,121.51a6.88,6.88,0,0,0,2.82.68c1.24,0,1.84-.46,1.84-1.14s-.46-1-1.85-1.52c-2.22-.75-3.12-1.79-3.11-2.94,0-1.76,1.71-3.12,4.37-3.12a7.56,7.56,0,0,1,3,.59l-.59,1.74a5.61,5.61,0,0,0-2.31-.53c-1,0-1.62.47-1.62,1.06s.51.93,1.94,1.44c2,.7,3,1.65,3,3.07,0,1.91-1.74,3.15-4.68,3.15a8.05,8.05,0,0,1-3.39-.67Z" transform="translate(-237.04 -5.61)"/><path class="osa-2" d="M272.14,119.41c.06,2,1.64,2.7,3.46,2.7a9.58,9.58,0,0,0,3-.44l.44,1.71a11.87,11.87,0,0,1-3.91.6c-3.72,0-5.86-2-5.86-5.1a5.22,5.22,0,0,1,5.55-5.41,4.5,4.5,0,0,1,4.83,4.84,5.15,5.15,0,0,1-.09,1.11Zm4.75-1.72a2.22,2.22,0,0,0-2.25-2.5,2.53,2.53,0,0,0-2.5,2.5Z" transform="translate(-237.04 -5.61)"/><path class="osa-2" d="M281.89,123.79c.05-.71.1-1.83.1-2.81V109.16h3V115H285a4.15,4.15,0,0,1,3.5-1.52c2.73,0,4.6,2,4.59,5.09,0,3.63-2.48,5.44-5,5.44a3.87,3.87,0,0,1-3.41-1.65h-.07l-.14,1.44Zm3.06-4a2.1,2.1,0,0,0,.09.61,2.36,2.36,0,0,0,2.33,1.64c1.75,0,2.72-1.31,2.72-3.35,0-1.8-.88-3.25-2.7-3.25a2.37,2.37,0,0,0-2.44,2.3v2Z" transform="translate(-237.04 -5.61)"/><path class="osa-2" d="M295.47,116.64c0-1.16-.05-2.08-.1-3H298l.14,1.42h.07a4.27,4.27,0,0,1,3.59-1.61c2.1,0,4,1.18,4,4.12v6.19h-3v-5.93c0-1.32-.53-2.38-2.06-2.38a2.21,2.21,0,0,0-2.13,1.42,2.18,2.18,0,0,0-.14.84v6h-3Z" transform="translate(-237.04 -5.61)"/><path class="osa-2" d="M319.38,118.66c0,3.82-3,5.34-5.72,5.34-3.18,0-5.58-1.92-5.58-5.2s2.5-5.33,5.76-5.33S319.38,115.51,319.38,118.66Zm-8.28.08c0,1.87.93,3.44,2.66,3.44s2.59-1.59,2.59-3.46c0-1.56-.68-3.44-2.59-3.44s-2.66,1.84-2.66,3.46Z" transform="translate(-237.04 -5.61)"/><path class="osa-2" d="M333,123.79l-.19-1.1h-.07a4.4,4.4,0,0,1-3.3,1.31c-2.26,0-3.63-1.39-3.63-3,0-2.57,2.72-3.8,6.7-3.8V117c0-.78-.37-1.78-2.28-1.77a6.73,6.73,0,0,0-3,.69l-.58-1.61a9.68,9.68,0,0,1,4.11-.85c3.69,0,4.71,2,4.71,4.16v3.76a13.78,13.78,0,0,0,.18,2.4Zm-.4-5c-1.84,0-3.87.33-3.87,1.93a1.46,1.46,0,0,0,1.62,1.49,2.22,2.22,0,0,0,2.15-1.33,1.42,1.42,0,0,0,.08-.54Z" transform="translate(-237.04 -5.61)"/><path class="osa-2" d="M338.31,121.51a6.88,6.88,0,0,0,2.82.68c1.24,0,1.84-.46,1.84-1.14s-.46-1-1.85-1.52c-2.22-.75-3.11-1.79-3.1-2.94,0-1.76,1.71-3.12,4.36-3.12a7.55,7.55,0,0,1,3,.57l-.59,1.75a5.42,5.42,0,0,0-2.31-.52c-1,0-1.61.47-1.61,1.06s.5.93,1.93,1.44c2.05.7,3,1.65,3,3.07,0,1.91-1.73,3.15-4.68,3.15a8.05,8.05,0,0,1-3.39-.67Z" transform="translate(-237.04 -5.61)"/><path class="osa-2" d="M351.25,110.91c0,.76-.64,1.35-1.67,1.35a1.38,1.38,0,1,1,1.67-1.35Zm-3.11,12.88V113.68h3v10.11Z" transform="translate(-237.04 -5.61)"/><path class="osa-2" d="M354,121.51a6.88,6.88,0,0,0,2.82.68c1.24,0,1.84-.46,1.84-1.14s-.46-1-1.85-1.52c-2.22-.75-3.12-1.79-3.11-2.94,0-1.76,1.71-3.12,4.37-3.12a7.55,7.55,0,0,1,3,.57l-.6,1.75a5.44,5.44,0,0,0-2.31-.54c-1,0-1.61.47-1.61,1.07s.51.92,1.94,1.43c2,.7,3,1.65,3,3.07,0,1.91-1.74,3.16-4.69,3.16a8.24,8.24,0,0,1-3.39-.67Z" transform="translate(-237.04 -5.61)"/><path class="osa-2" d="M367.28,110.83v2.83h2.77v1.81h-2.77v4.69c0,1.24.45,1.77,1.48,1.77a5.66,5.66,0,0,0,1.09-.09l.06,1.87a8.26,8.26,0,0,1-2.1.24,3.9,3.9,0,0,1-2.51-.77,3.48,3.48,0,0,1-.94-2.82V115.5H362.7v-1.82h1.66v-2.24Z" transform="translate(-237.04 -5.61)"/><path class="osa-2" d="M374.16,119.41c.07,2,1.65,2.7,3.46,2.7a9.69,9.69,0,0,0,3-.44l.43,1.71a11.77,11.77,0,0,1-3.9.6c-3.73,0-5.86-2-5.86-5.1a5.22,5.22,0,0,1,5.54-5.41,4.51,4.51,0,0,1,4.84,4.84,5.15,5.15,0,0,1-.09,1.11Zm4.76-1.72a2.22,2.22,0,0,0-2.25-2.5,2.53,2.53,0,0,0-2.51,2.5Z" transform="translate(-237.04 -5.61)"/><path class="osa-2" d="M384,116.64c0-1.16,0-2.08-.1-3h2.58l.15,1.42h.07a4.26,4.26,0,0,1,3.59-1.61c2.1,0,4,1.18,4,4.12v6.19h-3v-5.93c0-1.32-.53-2.38-2.06-2.38a2.21,2.21,0,0,0-2.13,1.42,2.18,2.18,0,0,0-.14.84v6h-3Z" transform="translate(-237.04 -5.61)"/><path class="osa-2" d="M405.52,123.51a8.93,8.93,0,0,1-3,.47c-3.55,0-5.86-2-5.86-5.15,0-3,2.35-5.35,6.33-5.35a8,8,0,0,1,2.62.41l-.5,1.87a5.58,5.58,0,0,0-2-.35,3.3,3.3,0,1,0,0,6.6,6,6,0,0,0,2.1-.35Z" transform="translate(-237.04 -5.61)"/><path class="osa-2" d="M418,118.66c0,3.82-3,5.34-5.72,5.34-3.19,0-5.58-1.92-5.58-5.2s2.5-5.33,5.76-5.33S418,115.51,418,118.66Zm-8.28.08c0,1.87.93,3.44,2.66,3.44s2.59-1.59,2.59-3.46c0-1.56-.68-3.44-2.59-3.44s-2.66,1.84-2.66,3.46Z" transform="translate(-237.04 -5.61)"/></svg>