<svg id="Layer_1" data-name="Layer 1" xmlns="http://www.w3.org/2000/svg" viewBox="0 0 483 47.83"><defs><style>.cls-1{fill:#020202;}</style></defs><title>logo</title><path class="cls-1" d="M37.41,161.8V169H10V122.19h8.71V161.8Z" transform="translate(-10 -121.68)"/><path class="cls-1" d="M58.83,169H50.09V122.19h8.74Z" transform="translate(-10 -121.68)"/><path class="cls-1" d="M115.2,122.19V169h-4.47a3.46,3.46,0,0,1-3.07-1.49L83.23,136.3c.13,1.43.19,2.74.19,3.95V169H75.75V122.19h4.56a8.72,8.72,0,0,1,1,0,2.2,2.2,0,0,1,1.31.62,6.43,6.43,0,0,1,.65.73l24.52,31.32c-.06-.76-.12-1.5-.16-2.24s-.06-1.41-.06-2V122.19Z" transform="translate(-10 -121.68)"/><path class="cls-1" d="M140.79,141.8h2a5.24,5.24,0,0,0,2-.34,3.44,3.44,0,0,0,1.39-1.08L159.17,124a4.65,4.65,0,0,1,1.7-1.44,5.42,5.42,0,0,1,2.25-.41h7.5l-15.76,19.45a8.48,8.48,0,0,1-2.88,2.52,6.43,6.43,0,0,1,1.93,1.09,8.49,8.49,0,0,1,1.64,1.83L171.79,169h-7.67a4.76,4.76,0,0,1-2.31-.43,3.65,3.65,0,0,1-1.28-1.28L147.29,150a3.49,3.49,0,0,0-1.42-1.23,6,6,0,0,0-2.33-.36h-2.75V169h-8.71V122.19h8.71Z" transform="translate(-10 -121.68)"/><path class="cls-1" d="M191.66,169h-8.74V122.19h8.74Z" transform="translate(-10 -121.68)"/><path class="cls-1" d="M248,122.19V169h-4.46a3.94,3.94,0,0,1-1.74-.34,4,4,0,0,1-1.34-1.15L216.05,136.3c.13,1.43.2,2.74.2,3.95V169h-7.67V122.19h4.56a8.52,8.52,0,0,1,1,0,2.24,2.24,0,0,1,.72.2,2,2,0,0,1,.59.42,5.59,5.59,0,0,1,.65.73l24.53,31.32c-.07-.76-.12-1.5-.16-2.24s-.07-1.41-.07-2V122.19Z" transform="translate(-10 -121.68)"/><path class="cls-1" d="M303.48,145.52v18.93a24.71,24.71,0,0,1-7.59,3.84,29.69,29.69,0,0,1-8.62,1.21,28.75,28.75,0,0,1-10.37-1.78,23.4,23.4,0,0,1-7.93-4.95,21.71,21.71,0,0,1-5.06-7.57,25.33,25.33,0,0,1-1.78-9.61,26.53,26.53,0,0,1,1.71-9.68,21.38,21.38,0,0,1,12.53-12.49,27.78,27.78,0,0,1,10.09-1.74,29.84,29.84,0,0,1,5.33.45,27.43,27.43,0,0,1,4.59,1.24,20.26,20.26,0,0,1,3.87,1.93,23.35,23.35,0,0,1,3.2,2.49l-2.49,4a2.39,2.39,0,0,1-1.52,1.15,2.73,2.73,0,0,1-2-.47l-2.14-1.23a13.59,13.59,0,0,0-2.37-1.07,19.53,19.53,0,0,0-2.95-.74,21.17,21.17,0,0,0-3.77-.29,16.09,16.09,0,0,0-6.26,1.16,13.34,13.34,0,0,0-4.77,3.33,15,15,0,0,0-3,5.21,20.26,20.26,0,0,0-1.07,6.8,20.82,20.82,0,0,0,1.15,7.17,14.94,14.94,0,0,0,3.23,5.33,13.82,13.82,0,0,0,5,3.34,19.51,19.51,0,0,0,11.2.6,23.64,23.64,0,0,0,4-1.49v-8.48h-5.89a1.78,1.78,0,0,1-1.31-.47,1.58,1.58,0,0,1-.47-1.15v-4.92Z" transform="translate(-10 -121.68)"/><path class="cls-1" d="M391.3,122.19V169h-7.67V138.76c0-1.21.07-2.51.2-3.92l-14.14,26.57a3.28,3.28,0,0,1-3.08,1.91h-1.23a3.27,3.27,0,0,1-3.07-1.91L348,134.75c.07.71.12,1.41.17,2.1s.06,1.33.06,1.91V169h-7.67V122.19h6.57a9.86,9.86,0,0,1,1,0,2.63,2.63,0,0,1,.76.16,1.53,1.53,0,0,1,.61.42,3.4,3.4,0,0,1,.53.78l14,26q.54,1,1,2.13c.31.74.62,1.49.92,2.27.3-.8.61-1.57.94-2.31s.66-1.47,1-2.16l13.82-25.91a3.13,3.13,0,0,1,.55-.78,1.59,1.59,0,0,1,.63-.42,2.56,2.56,0,0,1,.76-.16,9.78,9.78,0,0,1,1,0Z" transform="translate(-10 -121.68)"/><path class="cls-1" d="M448.28,169h-6.73a2.9,2.9,0,0,1-1.84-.56,3.54,3.54,0,0,1-1.07-1.41l-3.5-9.55H415.76L412.27,167a3.13,3.13,0,0,1-1,1.36,2.76,2.76,0,0,1-1.84.61h-6.8L421,122.19h8.87Zm-15.37-17.66-5.69-15.57c-.28-.69-.57-1.51-.88-2.46s-.6-2-.9-3.07c-.28,1.1-.58,2.13-.87,3.09s-.6,1.79-.88,2.51L418,151.32Z" transform="translate(-10 -121.68)"/><path class="cls-1" d="M474.82,122.19a26.8,26.8,0,0,1,8.12,1.1,15.73,15.73,0,0,1,5.66,3.08,12.12,12.12,0,0,1,3.32,4.72,16.35,16.35,0,0,1,1.08,6,16.76,16.76,0,0,1-1.13,6.23,13,13,0,0,1-3.4,4.87,15.68,15.68,0,0,1-5.68,3.17,25.21,25.21,0,0,1-8,1.13h-6.51V169h-8.7V122.19Zm0,23.53a13.1,13.1,0,0,0,4.17-.6,7.84,7.84,0,0,0,3-1.72,6.81,6.81,0,0,0,1.76-2.71,10.38,10.38,0,0,0,.59-3.58,9.44,9.44,0,0,0-.59-3.4,6.78,6.78,0,0,0-1.74-2.59,7.85,7.85,0,0,0-3-1.63,13.76,13.76,0,0,0-4.2-.57h-6.51v16.8Z" transform="translate(-10 -121.68)"/></svg>